<svg width="144" height="136" viewBox="0 0 144 136" fill="none" xmlns="http://www.w3.org/2000/svg">
<path d="M100.056 68.2978C100.056 93.2436 89.2275 115.657 72.0038 131.101C54.78 115.657 43.9518 93.2436 43.9518 68.2978C43.9518 43.3519 54.78 20.9381 72.0038 5.49456C89.2275 20.9381 100.056 43.3519 100.056 68.2978ZM140.401 68.2981C140.401 79.5854 135.739 89.781 128.225 97.0686C120.711 89.781 116.048 79.5854 116.048 68.2981C116.048 57.0109 120.711 46.8153 128.225 39.5277C135.739 46.8153 140.401 57.0109 140.401 68.2981ZM27.9518 68.2981C27.9518 79.5854 23.2891 89.7809 15.7753 97.0686C8.26142 89.7809 3.59876 79.5854 3.59876 68.2981C3.59876 57.0109 8.26143 46.8153 15.7753 39.5277C23.2891 46.8153 27.9518 57.0109 27.9518 68.2981Z" stroke="#367874" stroke-width="6.86415"/>
</svg>
